<svg xmlns="http://www.w3.org/2000/svg" width="262" height="128" fill="none"  xmlns:v="https://vecta.io/nano"><path d="M68.123 18.824h17.181l-1.512 9.759c3.574.962 7.01.55 8.522-.825l1.649-8.934h28.452c1.925 0 3.162-.687 3.574-2.199-4.123-3.986-10.721-9.209-10.721-9.209l-5.91 7.422H94.651l1.512-8.384c3.299.137 4.674-1.374 5.224-3.161L88.465.543l-2.474 14.295H67.023l1.1 3.986zm32.988 9.759c-20.343 4.948-58.554 9.896-89.342 11.271l.275 2.749c31.613.55 67.213-2.062 91.128-5.361 3.299 1.512 5.636 1.512 7.01.412l-9.071-9.072zM51.629 44.114c3.986 4.261 8.659 11.546 9.759 17.181 8.247 6.46 16.219-10.584-8.247-18.143l-1.512.962zm-32.575 4.261c5.361 4.811 11.683 13.607 12.92 20.755 9.347 6.597 16.769-12.783-11.546-21.854l-1.375 1.1zm78.896-6.323c-5.086 10.721-11.958 21.167-17.868 27.49l1.924 1.649c7.697-4.811 16.356-12.233 23.229-20.617 2.887.55 4.536-.412 5.223-1.787l-12.508-6.735zM3.247 18.824h25.84l1.787 14.432c3.986 0 7.147-.962 8.384-2.611l-1.649-11.821h22.404c1.787 0 3.299-.687 3.574-2.199-4.123-3.986-10.721-9.209-10.721-9.209l-5.91 7.422H36.922l-1.237-9.209c2.749-.825 3.711-2.062 3.986-3.711l-12.92-1.1 1.787 14.02H2.147l1.1 3.986zm117.107 62.952c1.786 0 3.161-.687 3.436-2.199-4.673-4.536-12.508-10.446-12.508-10.446l-6.735 8.522H67.848V69.68c3.436-.55 4.673-1.924 4.948-3.711l-13.882-1.512v13.195H4.209l1.237 4.123H48.88C37.884 96.895 20.703 110.639.91 119.986l1.237 2.062c23.779-8.247 43.709-20.893 56.766-36.974v42.059h1.787c3.299 0 7.147-2.061 7.147-3.024V81.775h1.1c10.859 17.731 29.414 31.476 49.481 38.761.962-4.673 4.261-7.697 8.11-8.385l.275-1.512c-19.656-4.398-41.647-15.119-54.018-28.864h47.558zm118.481-70.374V27.07h-25.566V11.401h25.566zm-25.566 19.655h25.566v4.948h1.374c3.024 0 7.422-2.062 7.56-2.886V13.051c2.474-.55 4.673-1.649 5.635-2.749l-10.996-8.109-4.948 5.361h-23.504l-9.484-4.261v33.125h1.375c3.574 0 7.422-1.924 7.422-2.749v-2.611zm-31.063-19.655V27.07h-25.291V11.401h25.291zm-25.291 19.655h25.291v4.398h1.237c2.886 0 7.284-2.062 7.422-2.886V13.051c2.474-.55 4.811-1.649 5.635-2.749l-10.858-8.109-4.811 5.361h-23.229l-9.346-4.123v34.5h1.237c3.573 0 7.422-2.062 7.422-2.886v-3.986zm6.735 48.382V64.457h29.277v14.982H163.65zm29.277-33.675v14.707H163.65V45.764h29.277zm38.623 0v14.707h-29.414V45.764h29.414zm-29.414 33.675V64.457h29.414v14.982h-29.414zm39.86 18.143h-39.86v-14.02h29.414v5.635h1.374c3.024 0 7.423-2.199 7.56-3.161V47.413c2.749-.55 4.948-1.649 5.773-2.749l-10.996-8.384-5.086 5.498h-65.563l-9.759-4.536v53.33h1.375c3.711 0 7.422-2.062 7.422-2.886v-4.124h29.277v14.02h-58.829l1.238 3.986h57.591v25.153h1.374c4.811 0 7.835-2.199 7.835-2.749v-22.404h56.216c1.787 0 3.162-.687 3.574-2.199-4.948-4.398-13.058-10.446-13.058-10.446l-6.872 8.659z" fill="#fff"/></svg>