<svg xmlns="http://www.w3.org/2000/svg" width="222" height="88" fill="none"  xmlns:v="https://vecta.io/nano"><g fill="#4e0808"><path d="M21.96 43.891c.419-.14.792-.466 1.118-.932 5.171-1.351 9.923-2.795 12.765-3.68a11.55 11.55 0 0 1 .792 2.702c2.982 2.609 5.87-3.867-3.401-8.712l-.606.279c.978 1.351 2.05 3.075 2.888 4.892-4.472.419-8.758.745-11.786.932 4.798-3.727 10.249-9.271 13.044-13.137.932.233 1.537-.093 1.77-.513l-4.519-3.028c-.745 1.584-1.957 3.587-3.401 5.73-2.749.047-5.404.047-7.454 0 3.261-2.935 6.802-7.221 8.758-10.342.932.14 1.491-.233 1.677-.652l-4.892-2.562c-1.211 3.587-4.659 10.342-7.361 12.998-.373.233-1.211.466-1.211.466l1.77 4.519c.419-.186.839-.512 1.165-.978 2.376-.606 4.612-1.258 6.429-1.817-2.469 3.401-5.358 6.802-7.827 8.758-.419.279-1.398.512-1.398.512l1.677 4.566zm1.304 1.258c.28 2.842-1.025 6.103-2.283 7.361-.932.745-1.398 1.91-.839 2.935.745 1.072 2.609.839 3.447-.279 1.258-1.677 1.957-5.218.513-10.016h-.839zm4.938-.652c.512 2.376.885 5.916.419 8.712 2.469 3.121 6.336-2.749.233-8.898l-.652.186zm5.078-.885c1.211 1.957 2.469 5.171 2.422 7.687 2.795 2.655 6.149-3.541-1.817-7.966l-.606.279zm23.154 10.063h-6.01V22.321h10.389c.699 0 1.165-.233 1.211-.745-1.584-1.584-4.332-3.727-4.332-3.727l-2.329 3.075H37.287l.373 1.398h8.898v31.353H35.33l.373 1.351h26.275c.652 0 1.118-.233 1.258-.745-1.63-1.537-4.426-3.773-4.426-3.773l-2.376 3.168zm42.161-7.035c-.559 1.584-1.537 2.982-3.261 4.286-2.19-.373-4.752-.745-7.733-1.072.699-.978 1.398-2.096 2.05-3.215h8.945zM85.411 36.204h7.035v3.773h-7.035v-3.773zm17.564 0v3.773H95.94v-3.773h7.035zm-16.306-6.01V26.7h5.777v3.494h-5.777zm0-8.339h5.777v3.494h-5.777v-3.494zm14.861 0v3.494h-5.59v-3.494h5.59zm0 8.339h-5.59V26.7h5.59v3.494zm2.796 15.094h-1.445c.094-.326.187-.699.233-.978 1.025-.047 1.538-.559 1.631-1.165l-5.311-.559c-.093.978-.186 1.864-.419 2.702h-8.525c.513-.792.932-1.537 1.305-2.19 1.398.047 1.817-.419 2.003-.932l-3.261-.792h12.439v1.444h.605c1.118 0 2.795-.792 2.842-1.118v-5.078c.745-.14 1.304-.466 1.584-.792l-3.68-2.702-1.724 1.724H95.94v-3.261h5.59v1.211h.559c1.118 0 2.796-.839 2.842-1.165V26.7h3.541c.652 0 1.071-.233 1.211-.745-1.211-1.258-3.121-2.842-3.121-2.842l-1.631 2.096v-3.028c.652-.14 1.258-.419 1.491-.745l-3.587-2.702-1.677 1.77H95.94v-3.867c1.165-.186 1.584-.652 1.724-1.304l-5.218-.559v5.73h-5.544l-3.634-1.584v6.429h-2.609l.233.978c-1.304-1.258-3.168-2.935-3.168-2.935l-1.91 2.562h-.233v-9.457c1.211-.186 1.584-.606 1.677-1.304l-5.031-.559v11.321h-5.823l.373 1.351h4.845c-.978 6.802-2.702 13.65-5.73 18.961l.699.606c2.376-2.935 4.193-6.196 5.637-9.69v20.545h.699c1.211 0 2.655-.839 2.655-1.304V32.384c.978 1.817 1.91 4.1 2.096 5.916 2.609 2.329 5.497-3.075-2.096-7.314v-3.68h4.379c.559.047 1.025-.14 1.165-.606h2.143v6.522h.512c1.398 0 2.888-.699 2.888-1.072v-.559h5.777v3.261h-6.802l-3.634-1.584v10.342h.466c1.351 0 2.935-.699 2.935-1.072v-1.165h2.935a47.88 47.88 0 0 1-1.91 3.913h-7.174l.373 1.351h6.056c-.792 1.491-1.631 2.842-2.283 3.773l-.093.047c3.215.652 6.243 1.491 9.038 2.329-2.982 1.444-7.221 2.795-13.277 4.053l.326.885c7.547-1.071 12.625-2.376 16.073-3.913 3.354 1.165 6.103 2.422 8.153 3.634 3.634 1.584 8.013-2.655-4.566-5.73 1.91-1.537 2.889-3.215 3.494-5.078h6.196c.653 0 1.118-.233 1.212-.745-1.445-1.305-3.634-3.075-3.634-3.075l-2.003 2.469zm10.388-21.663c2.796 3.96 6.476 9.83 7.501 14.349 4.193 3.308 6.895-6.01-6.942-14.675l-.559.326zM148.21 22.6c-1.91 4.006-5.87 10.296-9.596 14.721-1.957-5.264-2.842-11.693-3.215-19.566v-.745c1.118-.14 1.537-.652 1.677-1.304l-5.777-.606c-.046 19.101 1.025 32.425-18.401 41.835l.465.792c17.61-6.522 20.965-16.399 21.71-29.303 1.491 14.256 5.544 23.666 17.377 29.257.512-2.05 1.863-3.075 3.773-3.354l.14-.512c-9.131-3.354-14.349-8.292-17.377-15.56 4.985-3.68 9.783-8.665 12.625-12.252 1.072.186 1.538 0 1.817-.512L148.21 22.6zm18.03-7.64c-1.119 4.752-4.38 12.159-7.687 16.352l.559.419c4.286-3.354 7.92-8.805 10.016-13.324 2.422 2.423 4.239 5.171 5.031 7.035 2.842 2.143 6.662-3.68-4.519-7.966 1.072-.047 1.538-.373 1.678-.885l-5.078-1.63zm20.358 32.005v-7.361h4.798v7.361h-4.798zm7.547-7.081c.699-.14 1.258-.466 1.491-.745l-3.121-2.423-1.491 1.491h-4.24l-2.935-1.258v14.256h.42c1.164 0 2.329-.606 2.329-.885v-2.003h4.798v2.376h.42c.885 0 2.283-.606 2.329-.839v-9.97zm.186-21.057v5.311h-3.307l-3.448-1.444v9.737h-4.099V18.827h10.854zm-3.913 6.662h3.913v6.942h-3.913v-6.942zm9.224 5.171l-1.257 1.77h-.746V19.2c1.165-.093 1.77-.373 2.143-.839l-4.239-3.121-1.724 2.236h-9.783l-3.727-1.584v16.259l-2.982-1.351v17.889l-7.593 2.003V36.996h6.289c.605 0 1.071-.233 1.211-.745-1.398-1.444-3.727-3.401-3.727-3.401l-2.05 2.795h-1.723v-5.917h4.845c.652 0 1.071-.233 1.164-.745-1.351-1.351-3.634-3.261-3.634-3.261l-2.049 2.702h-7.314l.372 1.304h3.448v5.917h-6.616l.373 1.351h6.243v14.535c-3.122.792-5.684 1.398-7.221 1.677l2.515 4.333c.466-.186.886-.606 1.025-1.165 6.522-2.935 11.135-5.218 14.442-6.895v8.153h.559c1.398 0 2.749-.792 2.749-1.165V33.781h16.818v19.566c0 .466-.187.606-.792.606-1.584 0-4.333-.233-4.333-.233v.652c1.631.279 2.656.699 3.215 1.211.466.559.652 1.165.652 2.189 4.006-.279 4.705-1.724 4.705-4.193V34.666c.699-.14 1.351-.466 1.677-.792l-2.935-3.214zm-38.713 8.851c.792 2.562 1.49 6.336 1.164 9.271 2.423 2.842 5.73-3.028-.512-9.457l-.652.186zm10.761 9.084c1.305-1.957 2.562-4.845 3.587-7.267.932-.047 1.491-.466 1.678-.978l-4.519-1.351c-.42 3.215-.979 6.848-1.584 9.271l.838.326z"/><path d="M18.243 63.471l1.597.04 2.037-.053c.976 0 1.775.208 2.396.626s.932 1.056.932 1.917c0 1.269-.643 2.125-1.93 2.569l.879 1.198 1.744 2.263c.311.284.665.444 1.065.479l.173.466-.985-.04-1.331.027-1.344-1.997-1.451-2.103c-.036-.035-.084-.053-.146-.053H20.6v3.088c0 .177.08.302.24.373.16.062.466.111.919.146l.12.586-1.757-.04-1.704.04-.107-.586c.497-.053.799-.102.905-.146.115-.053.173-.177.173-.373v-7.321c0-.177-.067-.297-.2-.359-.124-.071-.399-.124-.825-.16l-.12-.586zm2.356.839v3.86c.204.027.497.04.879.04 1.642 0 2.463-.732 2.463-2.196 0-.639-.209-1.118-.626-1.438-.417-.328-.958-.493-1.624-.493-.577 0-.905.027-.985.08-.071.044-.107.093-.107.146zm12.117 5.418h-3.86v.173c0 .648.182 1.211.546 1.691a1.74 1.74 0 0 0 1.451.706c.603 0 1.1-.195 1.491-.586.027-.027.049-.04.067-.04s.04.013.067.04l.293.333c-.666.719-1.438 1.078-2.316 1.078-.87 0-1.557-.275-2.063-.825-.497-.55-.745-1.282-.745-2.196 0-.923.284-1.655.852-2.196.568-.55 1.216-.825 1.944-.825s1.3.222 1.717.666c.417.435.626 1.047.626 1.837 0 .098-.022.146-.066.146zm-1.265-.626c0-.976-.377-1.464-1.131-1.464-.399 0-.723.142-.972.426-.248.275-.399.621-.453 1.038h2.556zm7.787 2.329c0 .577.195.865.586.865h.16l.226-.013.093.426-.945.16c-.222.044-.546.129-.972.253-.115 0-.173-.035-.173-.107l-.04-.799c-.16.222-.422.43-.785.626-.364.186-.75.28-1.158.28-.728 0-1.322-.249-1.784-.746-.462-.506-.692-1.185-.692-2.037 0-1.047.284-1.85.852-2.409.568-.568 1.251-.852 2.05-.852.541 0 1.025.102 1.451.306v-2.676c0-.524-.24-.785-.719-.785-.115 0-.231.013-.346.04l-.12-.399c.914-.266 1.606-.506 2.077-.719.16 0 .24.084.24.253v8.333zm-1.131-2.529c0-.391-.138-.697-.413-.918-.275-.231-.67-.346-1.185-.346s-.901.213-1.158.639-.386.998-.386 1.717c0 .71.164 1.287.492 1.731.337.435.768.652 1.291.652.213 0 .408-.031.586-.093.186-.071.311-.129.373-.173l.399-.28v-2.928zm7.045-5.391l1.597-.04.106.586c-.497.053-.799.106-.905.16-.106.044-.16.164-.16.359v3.221h5.058v-3.221c0-.169-.062-.288-.186-.359-.115-.071-.351-.124-.705-.16l-.12-.586 1.597.04 1.637-.04.106.586c-.506.053-.821.106-.945.16-.115.044-.173.164-.173.359v7.321c0 .177.058.302.173.373.124.062.368.111.732.146l.12.586-1.571-.04-1.664.04-.106-.586c.586-.071.914-.133.985-.186.08-.062.12-.16.12-.293v-3.408h-5.058v3.368c0 .177.058.302.173.373.115.062.355.111.719.146l.12.586-1.557-.04-1.637.04-.107-.586c.497-.053.799-.102.905-.146.115-.053.173-.177.173-.373v-7.321c0-.169-.058-.288-.173-.359-.106-.071-.337-.124-.692-.16l-.12-.586 1.557.04zm10.145 6.416c0 .692.169 1.3.506 1.824.346.515.807.772 1.384.772.586 0 1.016-.2 1.291-.599.284-.399.426-.958.426-1.677 0-.728-.186-1.344-.559-1.85-.364-.506-.83-.759-1.398-.759s-.985.209-1.251.626c-.266.408-.399.963-.399 1.664zm1.771 3.195c-.87 0-1.584-.266-2.143-.799-.559-.541-.839-1.247-.839-2.117 0-.879.284-1.62.852-2.223.577-.603 1.3-.905 2.17-.905.879 0 1.597.275 2.157.825.568.541.852 1.251.852 2.13 0 .87-.293 1.602-.879 2.196-.577.595-1.3.892-2.17.892zm6.487 0c-1.269 0-1.904-.67-1.904-2.01v-2.955c0-.151-.044-.253-.133-.306-.089-.062-.288-.111-.599-.146l-.093-.506a9.23 9.23 0 0 0 .972.04l.985-.04v3.461c0 1.029.47 1.544 1.411 1.544a2.13 2.13 0 0 0 .759-.146 1.86 1.86 0 0 0 .612-.386v-3.514c0-.16-.044-.266-.133-.319-.08-.053-.271-.098-.572-.133l-.12-.506c.222.027.546.04.972.04l.985-.04v4.273c0 .293.044.506.133.639.098.133.253.2.466.2h.479l.093.426-.586.093-.572.08c-.106.018-.257.053-.453.106l-.426.12c-.115 0-.173-.031-.173-.093l-.04-.825-.293.279-.226.16c-.089.071-.186.129-.293.173-.098.044-.213.089-.346.133a2.42 2.42 0 0 1-.905.16zm7.103-.599c.728 0 1.091-.293 1.091-.879 0-.248-.111-.453-.333-.612-.213-.169-.475-.306-.785-.413l-.918-.373a2.11 2.11 0 0 1-.799-.599c-.213-.266-.319-.621-.319-1.065 0-.453.195-.816.586-1.092.399-.284.874-.426 1.424-.426s1.149.102 1.797.306c.089.053.133.249.133.586s-.027.639-.08.905l-.532-.053c-.044-.355-.182-.639-.413-.852a1.18 1.18 0 0 0-.852-.333c-.328 0-.59.071-.785.213a.67.67 0 0 0-.279.559c0 .231.106.426.319.586.222.16.488.293.799.399l.932.333a1.74 1.74 0 0 1 .799.586c.222.275.333.648.333 1.118s-.195.874-.586 1.211c-.382.328-.874.493-1.478.493s-1.265-.133-1.983-.399c-.044-.027-.084-.231-.12-.612l-.053-.932v-.067l.626-.053c.142.976.635 1.464 1.478 1.464zm8.194-2.795h-3.86v.173c0 .648.182 1.211.546 1.691a1.74 1.74 0 0 0 1.451.706c.604 0 1.101-.195 1.491-.586.027-.027.049-.04.067-.04s.04.013.067.04l.293.333c-.666.719-1.438 1.078-2.316 1.078-.87 0-1.557-.275-2.063-.825-.497-.55-.745-1.282-.745-2.196 0-.923.284-1.655.852-2.196.568-.55 1.216-.825 1.944-.825s1.3.222 1.717.666c.417.435.626 1.047.626 1.837 0 .098-.022.146-.067.146zm-1.264-.626c0-.976-.377-1.464-1.132-1.464a1.23 1.23 0 0 0-.972.426c-.248.275-.399.621-.453 1.038h2.556zm10.599-4.992h-1.065v7.761c0 .186.071.311.213.373.151.062.488.111 1.012.146l.12.586-1.837-.04-1.877.04-.106-.586 1.078-.146c.124-.053.186-.177.186-.373V64.11h-.825c-.444 0-.772.022-.985.066-.612.124-1.003.67-1.171 1.637l-.373.027c-.062-.311-.093-.737-.093-1.278 0-.55.031-.932.093-1.145.195.062.546.093 1.052.093h5.977c.515 0 .861-.031 1.038-.093l.053 1.225c0 .435-.035.834-.106 1.198l-.399-.04c-.08-.621-.266-1.056-.559-1.304-.293-.257-.768-.386-1.424-.386zm5.639 8.266c.453 0 .79-.151 1.012-.453v-1.491c-.763.133-1.273.284-1.531.453-.257.16-.386.391-.386.692.018.275.111.479.28.612.169.124.377.186.626.186zm2.702-.08h.279c.044 0 .075-.004.093-.013.035.231.067.373.093.426-.107.053-.351.138-.732.253-.373.106-.648.16-.825.16s-.302-.062-.373-.186c-.071-.133-.124-.364-.16-.692-.151.213-.377.408-.679.586-.293.177-.59.275-.892.293h-.067c-.426 0-.794-.12-1.105-.359-.302-.24-.453-.586-.453-1.038s.209-.799.626-1.038c.426-.248 1.26-.488 2.503-.719v-.799c0-.958-.359-1.438-1.078-1.438a1.42 1.42 0 0 0-.706.186v.905c0 .044-.12.089-.359.133l-.466.066c-.071 0-.142-.009-.213-.027-.071-.071-.106-.231-.106-.479s.071-.453.213-.612c.133-.177.453-.359.959-.546s.901-.28 1.185-.28c1.118 0 1.677.63 1.677 1.89v2.662c0 .284.053.466.16.546a.73.73 0 0 0 .426.12zm2.651.666l-1.438.04-.106-.532c.426-.035.679-.071.759-.106.089-.044.133-.16.133-.346v-3.381c0-.444-.222-.666-.666-.666-.106 0-.191.004-.253.013l-.12-.386 1.105-.306.812-.32c.115 0 .186.013.213.04.027.018.04.075.04.173v4.832c0 .16.04.271.12.333.08.053.275.093.586.12l.119.532-1.304-.04zm-.08-7.561c-.222 0-.408-.067-.559-.2-.142-.142-.213-.324-.213-.546s.075-.413.226-.572a.74.74 0 0 1 .559-.24c.231 0 .417.067.559.2a.69.69 0 0 1 .226.546.78.78 0 0 1-.24.572.74.74 0 0 1-.559.24zm10.982 1.837l.918-.04.107.493h-.054c-.257.027-.434.093-.532.2-.098.098-.213.293-.346.586l-2.05 4.486h-.546l-1.597-3.528-1.611 3.528h-.546l-1.983-4.393c-.169-.373-.315-.612-.439-.719-.116-.115-.311-.173-.586-.173l-.12-.492 1.478.053 1.477-.053.107.479h-.054c-.594.009-.891.115-.891.32 0 .08.026.173.079.28l1.425 3.394 1.344-2.928c-.213-.506-.368-.808-.466-.905-.088-.098-.27-.147-.545-.147l-.12-.492 1.424.053 1.438-.053.106.479h-.053c-.595.009-.892.115-.892.32 0 .044.027.138.08.28l1.424 3.394 1.584-3.421c.054-.124.08-.209.08-.253 0-.178-.23-.271-.692-.279l-.12-.506 1.172.04zm3.789 5.138c.453 0 .79-.151 1.012-.453v-1.491c-.763.133-1.273.284-1.531.453-.257.16-.386.391-.386.692.018.275.111.479.28.612.168.124.377.186.625.186zm2.703-.08h.279c.045 0 .076-.004.093-.013.036.231.067.373.094.426-.107.053-.351.138-.733.253-.372.106-.647.16-.825.16s-.302-.062-.373-.186c-.071-.133-.124-.364-.159-.692-.151.213-.378.408-.679.586-.293.177-.59.275-.892.293h-.067c-.426 0-.794-.12-1.105-.359-.301-.24-.452-.586-.452-1.038s.208-.799.625-1.038c.426-.248 1.261-.488 2.503-.719v-.799c0-.958-.359-1.438-1.078-1.438a1.42 1.42 0 0 0-.706.186v.905c0 .044-.12.089-.359.133l-.466.066a.88.88 0 0 1-.213-.027c-.071-.071-.106-.231-.106-.479s.071-.453.212-.612c.134-.177.453-.359.959-.546s.901-.28 1.185-.28c1.118 0 1.677.63 1.677 1.89v2.662c0 .284.053.466.16.546.115.08.257.12.426.12zm1.267-4.246l-.2.013-.12-.386c.622-.151 1.079-.302 1.371-.453l.493-.253c.115 0 .182.009.2.027.035.035.062.319.079.852.426-.257.799-.448 1.119-.572.328-.133.683-.2 1.065-.2 1.233 0 1.85.661 1.85 1.983v2.955c0 .16.04.271.12.333.08.053.275.093.585.12l.12.532-1.304-.04-1.438.04-.106-.532c.425-.035.678-.071.758-.106.089-.044.133-.16.133-.346v-2.503c0-.568-.111-.963-.332-1.185s-.573-.333-1.052-.333-.976.124-1.491.373v3.647c0 .16.04.271.12.333.08.053.275.093.586.12l.119.532-1.304-.04-1.438.04-.106-.532c.426-.035.679-.071.759-.106.088-.044.133-.16.133-.346v-3.115c0-.319-.058-.541-.173-.666s-.298-.186-.546-.186zm13.223 4.406c.613 0 1.083-.155 1.411-.466.338-.311.506-.688.506-1.132a1.5 1.5 0 0 0-.492-1.132c-.32-.319-.715-.595-1.185-.825l-1.398-.719a3.86 3.86 0 0 1-1.185-.985c-.319-.417-.479-.901-.479-1.451 0-.79.284-1.384.852-1.784.568-.408 1.243-.612 2.024-.612 1.002 0 1.863.169 2.582.506.062.133.093.484.093 1.052l-.053 1.264-.413-.027c-.035-.621-.253-1.136-.652-1.544-.39-.417-.923-.626-1.597-.626-.48 0-.874.124-1.185.373-.302.24-.453.577-.453 1.012 0 .515.315.963.945 1.344l.919.506 1.012.546c.337.186.643.395.918.626a2.43 2.43 0 0 1 .945 1.97c0 .79-.275 1.451-.825 1.983-.55.524-1.278.785-2.183.785s-1.846-.182-2.822-.546c-.045-.133-.107-.462-.187-.985l-.173-1.344.613-.093c.355 1.535 1.176 2.303 2.462 2.303zm4.218-8.533l-.2.013-.12-.386a9.28 9.28 0 0 0 1.904-.706c.106 0 .173.018.2.053.035.027.057.093.066.2v4.752l.719-.399c.452-.248.918-.373 1.398-.373 1.26 0 1.89.661 1.89 1.983v2.955c0 .16.04.271.12.333.08.053.275.093.585.12l.12.532-1.304-.04-1.438.04-.107-.532c.426-.035.679-.071.759-.106.089-.044.133-.16.133-.346v-2.503c0-.568-.115-.967-.346-1.198-.222-.231-.581-.346-1.078-.346-.488 0-.972.115-1.451.346v3.701c0 .16.04.271.12.333.08.053.275.093.586.12l.119.532-1.304-.04-1.438.04-.106-.532c.426-.035.679-.071.758-.106.089-.044.134-.16.134-.346v-7.242c0-.319-.058-.541-.173-.665s-.298-.186-.546-.186zm9.684 8.453c.453 0 .79-.151 1.012-.453v-1.491c-.763.133-1.274.284-1.531.453-.257.16-.386.391-.386.692.018.275.111.479.28.612.168.124.377.186.625.186zm2.702-.08h.28c.044 0 .075-.004.093-.013.036.231.067.373.093.426-.106.053-.35.138-.732.253-.373.106-.648.16-.825.16s-.302-.062-.373-.186c-.071-.133-.124-.364-.16-.692-.15.213-.377.408-.678.586-.293.177-.591.275-.892.293h-.067c-.426 0-.794-.12-1.105-.359-.301-.24-.452-.586-.452-1.038s.208-.799.625-1.038c.426-.248 1.26-.488 2.503-.719v-.799c0-.958-.36-1.438-1.078-1.438a1.42 1.42 0 0 0-.706.186v.905c0 .044-.12.089-.359.133l-.466.066a.88.88 0 0 1-.213-.027c-.071-.071-.107-.231-.107-.479s.071-.453.213-.612c.133-.177.453-.359.959-.546s.901-.28 1.184-.28c1.119 0 1.678.63 1.678 1.89v2.662c0 .284.053.466.159.546.116.08.258.12.426.12zm2.772-.998c0 .39.133.697.399.918.275.213.67.319 1.185.319.523 0 .91-.213 1.158-.639.257-.426.386-.99.386-1.691 0-.71-.164-1.287-.492-1.731s-.746-.665-1.252-.665c-.497 0-.958.177-1.384.532v2.955zm-1.132-.586v-5.897c0-.346-.071-.572-.213-.679-.142-.115-.284-.173-.426-.173l-.306.013-.106-.399c.257-.062.599-.169 1.025-.319.426-.16.705-.284.838-.373.16 0 .24.035.24.106l.013 4.939c.16-.222.408-.417.746-.586a2.39 2.39 0 0 1 1.131-.266c.763 0 1.376.262 1.837.785.462.515.692 1.225.692 2.13 0 .896-.253 1.642-.758 2.236s-1.216.892-2.13.892c-.684 0-1.265-.133-1.744-.399l-.479.359c-.045.027-.08.04-.107.04a1.33 1.33 0 0 1-.226-.04c-.044-.018-.062-.058-.053-.12.017-.071.026-.821.026-2.25zm8.909 2.409c-1.269 0-1.903-.67-1.903-2.01v-2.955c0-.151-.045-.253-.133-.306-.089-.062-.289-.111-.599-.146l-.093-.506a9.21 9.21 0 0 0 .971.04l.985-.04v3.461c0 1.029.471 1.544 1.411 1.544.249 0 .502-.049.759-.146.257-.107.462-.235.612-.386v-3.514c0-.16-.044-.266-.133-.319-.08-.053-.27-.098-.572-.133l-.12-.506c.222.027.546.04.972.04l.985-.04v4.273c0 .293.044.506.133.639.098.133.253.2.466.2h.479l.093.426-.585.093-.573.08c-.106.018-.257.053-.452.106l-.426.12c-.116 0-.173-.031-.173-.093l-.04-.825-.293.279-.226.16a1.23 1.23 0 0 1-.293.173 3.63 3.63 0 0 1-.346.133c-.267.106-.568.16-.906.16zm5.386-3.395l1.771.013 1.278-.013c.071.08.133.204.186.373s.08.311.08.426l-1.557-.013-1.611.013c-.124-.124-.186-.266-.186-.426 0-.169.013-.293.039-.373zm7.708 2.729c.612 0 1.082-.155 1.411-.466a1.48 1.48 0 0 0 .506-1.132c0-.444-.164-.821-.493-1.132-.319-.319-.714-.595-1.185-.825l-1.397-.719c-.462-.248-.857-.577-1.185-.985-.319-.417-.479-.901-.479-1.451 0-.79.284-1.384.852-1.784.568-.408 1.242-.612 2.023-.612 1.003 0 1.864.169 2.583.506.062.133.093.484.093 1.052l-.054 1.264-.412-.027c-.036-.621-.253-1.136-.652-1.544-.391-.417-.923-.626-1.598-.626-.479 0-.874.124-1.185.373-.301.24-.452.577-.452 1.012 0 .515.315.963.945 1.344l.918.506 1.012.546a5.81 5.81 0 0 1 .919.626 2.43 2.43 0 0 1 .945 1.97c0 .79-.275 1.451-.826 1.983-.55.524-1.278.785-2.183.785s-1.846-.182-2.822-.546c-.044-.133-.106-.462-.186-.985l-.173-1.344.612-.093c.355 1.535 1.176 2.303 2.463 2.303zm4.217-8.533l-.199.013-.12-.386c.692-.178 1.327-.413 1.903-.706.107 0 .173.018.2.053.036.027.058.093.067.2v4.752l.718-.399c.453-.248.919-.373 1.398-.373 1.26 0 1.89.661 1.89 1.983v2.955c0 .16.04.271.12.333.08.053.275.093.586.12l.12.532-1.305-.04-1.438.04-.106-.532c.426-.035.679-.071.759-.106.088-.044.133-.16.133-.346v-2.503c0-.568-.116-.967-.346-1.198-.222-.231-.582-.346-1.078-.346-.489 0-.972.115-1.451.346v3.701c0 .16.04.271.119.333.08.053.275.093.586.12l.12.532-1.305-.04-1.437.04-.107-.532c.426-.035.679-.071.759-.106.089-.044.133-.16.133-.346v-7.242c0-.319-.058-.541-.173-.665s-.297-.186-.546-.186zm9.685 8.453c.452 0 .79-.151 1.011-.453v-1.491c-.763.133-1.273.284-1.53.453-.258.16-.386.391-.386.692.017.275.11.479.279.612.169.124.377.186.626.186zm2.702-.08h.279c.045 0 .076-.004.094-.013.035.231.066.373.093.426-.107.053-.351.138-.732.253-.373.106-.648.16-.826.16s-.301-.062-.372-.186c-.071-.133-.125-.364-.16-.692-.151.213-.377.408-.679.586-.293.177-.59.275-.892.293h-.066c-.426 0-.795-.12-1.105-.359-.302-.24-.453-.586-.453-1.038s.209-.799.626-1.038c.426-.248 1.26-.488 2.502-.719v-.799c0-.958-.359-1.438-1.078-1.438a1.42 1.42 0 0 0-.705.186v.905c0 .044-.12.089-.36.133l-.466.066a.88.88 0 0 1-.213-.027c-.071-.071-.106-.231-.106-.479s.071-.453.213-.612c.133-.177.452-.359.958-.546s.901-.28 1.185-.28c1.118 0 1.677.63 1.677 1.89v2.662c0 .284.053.466.16.546.115.08.257.12.426.12zm2.771-.998c0 .39.133.697.4.918.275.213.67.319 1.184.319.524 0 .91-.213 1.159-.639.257-.426.386-.99.386-1.691 0-.71-.165-1.287-.493-1.731s-.745-.665-1.251-.665c-.497 0-.959.177-1.385.532v2.955zm-1.131-.586v-5.897c0-.346-.071-.572-.213-.679-.142-.115-.284-.173-.426-.173l-.306.013-.107-.399c.258-.062.599-.169 1.025-.319.426-.16.706-.284.839-.373.16 0 .239.035.239.106l.014 4.939c.16-.222.408-.417.745-.586.337-.177.715-.266 1.132-.266.763 0 1.375.262 1.837.785.461.515.692 1.225.692 2.13 0 .896-.253 1.642-.759 2.236s-1.216.892-2.13.892c-.683 0-1.264-.133-1.744-.399l-.479.359c-.044.027-.08.04-.106.04-.036 0-.111-.013-.227-.04-.044-.018-.062-.058-.053-.12.018-.071.027-.821.027-2.25zm8.909 2.409c-1.269 0-1.904-.67-1.904-2.01v-2.955c0-.151-.044-.253-.133-.306-.089-.062-.288-.111-.599-.146l-.093-.506c.24.027.564.04.972.04l.985-.04v3.461c0 1.029.47 1.544 1.411 1.544.248 0 .501-.049.759-.146.257-.107.461-.235.612-.386v-3.514c0-.16-.044-.266-.133-.319-.08-.053-.271-.098-.573-.133l-.119-.506a8.75 8.75 0 0 0 .971.04l.985-.04v4.273c0 .293.045.506.134.639.097.133.252.2.465.2h.48l.093.426-.586.093-.572.08c-.107.018-.258.053-.453.106l-.426.12c-.115 0-.173-.031-.173-.093l-.04-.825-.293.279-.226.16a1.21 1.21 0 0 1-.293.173 3.53 3.53 0 0 1-.346.133 2.42 2.42 0 0 1-.905.16z"/></g><path stroke="#4e0808" stroke-width="3.308" d="M1.654 1.654h218.692V86.19H1.654z"/></svg>