<?xml version="1.0" standalone="no"?>
<!DOCTYPE svg PUBLIC "-//W3C//DTD SVG 20010904//EN"
 "http://www.w3.org/TR/2001/REC-SVG-20010904/DTD/svg10.dtd">
<svg version="1.0" xmlns="http://www.w3.org/2000/svg"
 width="619.000000pt" height="619.000000pt" viewBox="0 0 619.000000 619.000000"
 preserveAspectRatio="xMidYMid meet">
<metadata>
Created by potrace 1.11, written by Peter Selinger 2001-2013
</metadata>
<g transform="translate(0.000000,619.000000) scale(0.100000,-0.100000)"
fill="#000000" stroke="none">
<path d="M3878 5899 c-12 -7 -15 -17 -10 -37 4 -15 5 -47 2 -72 l-6 -45 -8 38
c-5 21 -11 35 -14 32 -9 -8 -9 -56 0 -61 5 -3 6 -10 2 -15 -3 -6 -12 -3 -20 8
-13 17 -14 17 -7 -2 3 -11 9 -24 14 -30 12 -16 14 -50 4 -52 -6 -2 -11 3 -11
10 -1 6 -3 15 -4 20 -1 4 -3 11 -4 16 0 5 -4 13 -8 17 -8 7 -24 -53 -19 -71 8
-29 -18 15 -29 49 -10 32 -14 36 -22 22 -6 -11 -6 -28 1 -49 l11 -31 -32 29
c-18 17 -38 37 -45 46 -7 9 -30 24 -51 32 -38 15 -85 67 -60 67 6 0 4 8 -7 18
-24 22 -94 28 -96 7 -1 -8 -2 -21 -3 -27 -1 -7 2 -31 5 -53 4 -22 3 -44 -2
-49 -5 -6 -9 -1 -10 15 -1 18 -3 19 -6 6 -3 -11 -11 -16 -19 -13 -7 3 -16 1
-18 -3 -3 -5 -27 -4 -53 1 -59 11 -101 16 -176 22 -64 6 -77 11 -77 31 0 19
-49 43 -78 39 -13 -2 -30 4 -42 16 -22 22 -69 27 -87 9 -7 -7 -22 -8 -47 -1
-30 9 -40 7 -60 -9 -13 -10 -34 -19 -46 -19 -29 0 -79 -30 -86 -52 -8 -27 -72
-56 -140 -63 -32 -4 -62 -9 -65 -11 -3 -1 -34 -6 -70 -9 -35 -3 -82 -11 -104
-17 -22 -5 -58 -12 -80 -15 -75 -9 -336 -100 -482 -169 -289 -137 -613 -371
-806 -582 -42 -46 -51 -49 -93 -27 -16 8 -40 15 -53 15 -24 0 -24 0 -5 -21 10
-11 14 -19 9 -18 -15 4 -76 -12 -98 -25 -14 -9 -21 -8 -30 5 -12 17 -166 99
-184 99 -5 0 -15 11 -21 24 -6 13 -24 30 -40 39 l-30 14 -5 -36 c-2 -20 -21
-61 -41 -91 -20 -30 -48 -81 -63 -112 -28 -61 -37 -67 -69 -43 -28 21 -52 18
-65 -7 -7 -13 -16 -26 -21 -29 -16 -10 -54 -132 -52 -164 1 -16 5 -57 9 -90 5
-33 8 -71 8 -85 -2 -89 -15 -163 -36 -215 -22 -51 -25 -71 -22 -144 3 -77 6
-88 29 -108 28 -24 35 -63 11 -63 -8 0 -15 -5 -15 -11 0 -10 57 -99 70 -109 4
-3 15 -21 25 -40 10 -19 26 -46 37 -60 20 -25 20 -45 -2 -150 -28 -133 -35
-236 -34 -495 1 -152 6 -256 18 -335 9 -63 19 -128 21 -143 2 -16 13 -71 25
-123 11 -52 19 -105 16 -117 -2 -12 1 -47 5 -77 5 -30 10 -62 10 -70 1 -8 5
-20 10 -25 4 -6 10 -23 13 -39 3 -16 13 -37 23 -48 10 -11 16 -21 13 -22 -3 0
20 -35 51 -76 31 -41 80 -120 109 -175 53 -102 133 -238 157 -266 16 -19 17
-59 2 -59 -6 0 -19 -10 -29 -23 -14 -16 -15 -25 -7 -35 14 -17 66 -45 92 -49
11 -2 29 -7 40 -12 11 -5 47 -15 80 -21 71 -14 84 -22 110 -74 35 -69 72 -112
111 -131 22 -10 53 -31 69 -46 17 -15 52 -47 79 -71 48 -44 48 -45 34 -74 -14
-29 -12 -64 7 -96 8 -14 17 -15 47 -9 20 5 40 6 43 3 3 -3 37 -5 76 -5 76 2
103 -14 116 -67 8 -33 64 -140 73 -140 4 0 19 -27 34 -60 22 -48 32 -60 50
-60 13 0 30 -8 40 -19 17 -19 66 -18 66 2 0 6 2 8 6 5 3 -3 21 -2 40 2 29 7
37 5 53 -16 19 -24 38 -34 25 -13 -4 7 -1 10 7 7 8 -3 13 -10 12 -15 -3 -15
46 -14 70 1 19 13 30 12 92 -9 202 -68 162 -65 884 -65 520 1 667 4 711 14 79
20 193 57 205 66 22 18 80 21 110 6 41 -22 58 -20 116 10 48 24 51 27 45 57
-19 101 -19 105 0 111 11 3 21 6 24 5 3 0 22 7 43 16 34 14 38 14 44 0 3 -9 0
-28 -6 -42 -11 -25 -11 -25 26 -21 21 3 48 2 59 -3 36 -13 63 1 76 38 9 25 17
33 33 31 11 -2 19 -9 18 -18 -2 -12 8 -15 50 -15 28 1 61 6 72 12 51 26 92 43
117 47 15 3 32 7 38 11 20 13 -5 97 -37 120 -8 6 -15 24 -17 40 -2 17 -5 30
-6 30 -1 0 -4 12 -6 27 -5 29 22 63 64 79 26 10 46 3 37 -12 -9 -14 29 -11 43
3 10 10 15 10 22 -2 8 -12 10 -11 10 7 0 12 12 30 29 43 17 11 33 29 36 40 3
10 16 22 28 26 21 7 28 9 60 17 30 7 75 38 91 62 9 14 33 33 54 43 24 11 38
25 40 39 2 16 14 25 40 33 20 5 42 10 49 10 6 0 28 10 48 22 29 17 36 26 32
44 -2 15 3 30 14 40 11 10 19 23 19 30 0 17 32 34 64 34 14 0 27 4 30 9 3 5
36 21 73 35 40 16 79 39 94 57 14 16 35 31 46 33 11 2 43 11 71 20 36 10 52
11 52 4 0 -6 3 -8 7 -5 3 4 1 17 -4 30 -21 42 -35 92 -40 142 -6 56 -23 106
-30 88 -12 -31 -63 12 -63 52 0 9 -4 14 -9 11 -5 -3 -14 14 -21 39 -7 25 -18
49 -26 55 -10 9 -4 36 31 138 24 70 46 141 51 157 4 17 8 35 10 40 13 44 56
238 59 270 3 22 7 51 10 65 2 14 7 41 10 60 3 19 10 56 16 83 6 26 8 60 4 75
-4 15 -9 99 -11 187 -4 155 -10 270 -14 270 -1 0 -4 16 -5 35 -7 76 -26 130
-47 130 -18 0 24 40 62 60 19 10 68 48 108 84 65 59 75 65 98 56 19 -8 31 -6
49 8 33 23 40 48 21 78 -11 16 -13 23 -4 22 6 -2 17 11 23 28 5 17 16 38 24
47 11 15 10 18 -15 28 -34 14 -67 13 -95 -1 -22 -12 -23 -8 -8 23 9 20 9 20
-4 5 -8 -10 -17 -15 -20 -11 -4 3 -7 -2 -7 -11 0 -12 -5 -16 -14 -13 -8 3 -20
-1 -26 -9 -7 -8 -17 -14 -22 -14 -6 0 -5 7 2 15 11 13 10 15 -6 10 -10 -3 -4
2 14 11 17 10 32 21 32 26 0 4 4 8 10 8 20 0 95 56 96 73 2 19 -2 21 -19 7
-96 -77 -138 -105 -213 -141 -49 -23 -93 -44 -97 -47 -5 -2 -4 6 3 18 16 29
-3 43 -37 27 -27 -12 -32 -9 -35 22 -3 19 9 29 62 58 36 20 76 44 89 54 13 11
30 19 37 19 8 0 14 4 14 9 0 5 9 13 20 16 11 3 20 12 20 18 0 6 9 20 20 32 56
57 90 96 90 104 0 5 3 11 8 13 4 2 16 20 27 42 15 29 36 47 87 73 52 28 64 38
55 47 -20 20 -46 26 -70 17 -12 -5 -45 -12 -72 -15 -45 -6 -96 -17 -147 -32
-13 -4 -18 0 -18 16 0 27 -17 60 -32 60 -7 0 -6 -5 2 -15 19 -22 5 -42 -29
-43 -17 0 -30 2 -28 6 21 36 38 84 33 89 -10 11 -45 -28 -48 -55 -2 -14 -10
-26 -18 -28 -8 -1 -23 -5 -34 -10 -17 -6 -18 -4 -12 27 3 19 8 54 11 79 5 42
4 40 -11 -15 -9 -33 -16 -66 -17 -72 -2 -36 -47 17 -47 55 0 15 -5 22 -12 19
-7 -2 -23 5 -35 16 -20 17 -25 18 -39 6 -16 -13 -16 -12 -6 7 6 12 18 24 26
27 8 3 23 21 32 39 9 18 27 46 40 61 13 16 24 36 24 45 0 10 13 30 30 45 22
21 28 33 21 45 -5 9 -10 22 -10 27 -3 15 -54 7 -149 -25 -56 -18 -89 -25 -93
-18 -4 7 -9 6 -13 -1 -4 -6 -11 -9 -15 -7 -4 3 -17 -3 -28 -13 -18 -17 -57
-41 -66 -41 -3 0 -7 10 -10 21 -4 15 -11 20 -21 16 -27 -11 -18 9 37 75 37 45
58 63 71 60 52 -11 91 53 54 90 -19 19 -18 19 27 66 33 34 45 54 43 72 -4 37
-46 31 -161 -24 -101 -48 -137 -56 -137 -31 0 8 4 15 10 15 13 0 82 61 76 67
-5 5 -91 -60 -111 -84 -5 -6 -19 -13 -30 -15 -12 -2 -19 -10 -17 -21 3 -15 -9
-22 -32 -18 -4 1 -14 -4 -22 -10 -10 -8 -14 -8 -14 -1 0 6 -6 9 -14 6 -17 -6
-31 30 -20 48 5 7 10 48 11 91 2 52 10 94 23 122 21 45 18 75 -6 75 -8 0 -40
-25 -71 -56 -32 -30 -66 -60 -76 -65 -16 -9 -17 -8 -8 10 22 40 10 45 -14 6
-19 -31 -25 -35 -26 -20 -1 11 -1 24 0 28 1 4 -8 3 -19 -3 -11 -6 -21 -15 -21
-20 -1 -6 -3 -14 -4 -20 -1 -5 -3 -18 -4 -27 -3 -42 -17 -46 -50 -17 -50 44
-66 87 -54 140 9 38 8 48 -8 68 -34 43 -74 38 -133 -15 -17 -17 -21 -15 -85
27 -36 24 -77 50 -91 57 -14 8 -45 25 -70 39 -77 44 -143 77 -192 97 -37 16
-47 26 -53 50 -3 16 -15 41 -26 55 -26 33 -52 96 -39 96 34 0 33 82 -1 101
-24 12 -59 -4 -60 -29 -1 -20 -49 76 -49 98 0 22 -33 40 -52 29z m1672 -1491
c0 -6 -7 -5 -15 2 -8 7 -15 17 -15 22 0 6 7 5 15 -2 8 -7 15 -17 15 -22z
m-118 -88 c-12 -10 -18 -21 -14 -25 4 -5 1 -5 -5 -1 -8 4 -13 2 -13 -5 0 -7
-3 -9 -6 -6 -11 11 23 54 42 54 15 0 14 -3 -4 -17z m252 -495 c-22 -17 -34
-19 -34 -6 0 5 8 12 18 14 32 9 36 7 16 -8z m116 0 c-7 -8 -18 -15 -24 -15 -6
0 -2 7 8 15 25 19 32 19 16 0z"/>
<path d="M3836 5845 c4 -8 8 -15 10 -15 2 0 4 7 4 15 0 8 -4 15 -10 15 -5 0
-7 -7 -4 -15z"/>
</g>
</svg>
